<svg id="Layer_1" data-name="Layer 1" xmlns="http://www.w3.org/2000/svg" xmlns:xlink="http://www.w3.org/1999/xlink" viewBox="0 0 1220.09 330.27"><defs><style>.cls-1{fill:#fff500;}.cls-2{fill:url(#linear-gradient);}.cls-3{fill:url(#linear-gradient-2);}.cls-4{fill:url(#linear-gradient-3);}.cls-5{fill:url(#linear-gradient-4);}.cls-6{fill:url(#linear-gradient-5);}.cls-7{fill:url(#linear-gradient-6);}.cls-8{fill:#00e1e5;}.cls-9{fill:url(#linear-gradient-7);}.cls-10{fill:url(#linear-gradient-8);}.cls-11{fill:url(#linear-gradient-9);}.cls-12{fill:#181a18;}</style><linearGradient id="linear-gradient" x1="203.97" y1="114.35" x2="36.97" y2="178.08" gradientUnits="userSpaceOnUse"><stop offset="0.1" stop-color="#fffc00"/><stop offset="0.2" stop-color="#ffe206"/><stop offset="0.41" stop-color="#ffa913"/><stop offset="0.57" stop-color="#ff851b"/><stop offset="0.66" stop-color="#ff781e"/></linearGradient><linearGradient id="linear-gradient-2" x1="876.48" y1="699.21" x2="709.48" y2="762.95" gradientTransform="matrix(-1, 0, 0, 1, 1053.87, -584.86)" xlink:href="#linear-gradient"/><linearGradient id="linear-gradient-3" x1="162.97" y1="165.29" x2="392.72" y2="164.09" xlink:href="#linear-gradient"/><linearGradient id="linear-gradient-4" x1="194.65" y1="102.25" x2="180.66" y2="323.84" gradientUnits="userSpaceOnUse"><stop offset="0.05" stop-color="#9d00ff"/><stop offset="0.15" stop-color="#b11bff"/><stop offset="0.39" stop-color="#da54ff"/><stop offset="0.56" stop-color="#f478ff"/><stop offset="0.66" stop-color="#fe85ff"/></linearGradient><linearGradient id="linear-gradient-5" x1="71.92" y1="289.17" x2="233.27" y2="195.05" gradientUnits="userSpaceOnUse"><stop offset="0.1" stop-color="#4c2aff"/><stop offset="0.29" stop-color="#923efd"/><stop offset="0.46" stop-color="#cb4ffb"/><stop offset="0.59" stop-color="#ef59fa"/><stop offset="0.66" stop-color="#fc5dfa"/></linearGradient><linearGradient id="linear-gradient-6" x1="172.85" y1="227.6" x2="383.15" y2="292.14" gradientUnits="userSpaceOnUse"><stop offset="0.1" stop-color="#fe2aff"/><stop offset="0.27" stop-color="#c21be8"/><stop offset="0.45" stop-color="#890cd2"/><stop offset="0.59" stop-color="#6503c4"/><stop offset="0.66" stop-color="#5800bf"/></linearGradient><linearGradient id="linear-gradient-7" x1="260.28" y1="171.6" x2="520.46" y2="246.23" gradientUnits="userSpaceOnUse"><stop offset="0.1" stop-color="#007aff"/><stop offset="0.27" stop-color="#0a82ff"/><stop offset="0.33" stop-color="#2397ff"/><stop offset="0.48" stop-color="#5cc4ff"/><stop offset="0.6" stop-color="#80e1ff"/><stop offset="0.66" stop-color="#8decff"/></linearGradient><linearGradient id="linear-gradient-8" x1="-97.07" y1="226.55" x2="285.34" y2="137" gradientUnits="userSpaceOnUse"><stop offset="0.1" stop-color="#00a611"/><stop offset="1" stop-color="#8dec00"/></linearGradient><linearGradient id="linear-gradient-9" x1="16.08" y1="15.83" x2="123.38" y2="242.53" gradientUnits="userSpaceOnUse"><stop offset="0.22" stop-color="#00aa14"/><stop offset="0.31" stop-color="#29c232"/><stop offset="0.45" stop-color="#62e35b"/><stop offset="0.55" stop-color="#86f775"/><stop offset="0.61" stop-color="#93ff7f"/></linearGradient></defs><polygon class="cls-1" points="286.02 55.05 190.68 110.09 190.67 110.09 95.33 55.05 190.68 0 286.02 55.05"/><polygon class="cls-2" points="190.68 110.09 190.68 220.18 95.33 165.14 95.33 55.05 190.68 110.09"/><polygon class="cls-3" points="190.68 110.09 190.68 220.18 286.03 165.14 286.03 55.05 190.68 110.09"/><polygon class="cls-4" points="286.02 165.14 190.68 220.18 190.68 110.11 286.02 165.14"/><polygon class="cls-5" points="286.02 165.14 190.68 220.18 95.33 165.14 190.68 110.09 286.02 165.14"/><polygon class="cls-6" points="190.68 220.18 190.68 330.27 95.33 275.23 95.33 165.14 190.68 220.18"/><polygon class="cls-7" points="286.02 165.14 286.02 275.23 190.68 330.27 190.68 220.18 286.02 165.14"/><polygon class="cls-8" points="381.36 110.09 286.02 165.14 286.02 55.05 381.36 110.09"/><polygon class="cls-9" points="381.36 110.09 381.36 220.18 286.02 275.23 286.02 165.14 381.36 110.09"/><polygon class="cls-10" points="0 110.09 0 220.18 95.34 275.23 95.34 165.14 0 110.09"/><polygon class="cls-11" points="0 110.1 95.34 165.14 95.34 55.05 0 110.1"/><path class="cls-12" d="M613.06,669.6H629v76.3h37.24v13.39H613.06Z" transform="translate(-134.15 -584.86)"/><path class="cls-12" d="M672.93,714.09c0-29,16.18-46.13,39.55-46.13S752,685.15,752,714.09s-16.18,46.84-39.55,46.84S672.93,743.1,672.93,714.09Zm62.75,0c0-20.13-9.1-32.31-23.2-32.31s-23.2,12.18-23.2,32.31,9.1,33,23.2,33S735.68,734.22,735.68,714.09Z" transform="translate(-134.15 -584.86)"/><path class="cls-12" d="M765.36,714.09c0-29,16.18-46.13,39.55-46.13s39.55,17.19,39.55,46.13-16.19,46.84-39.55,46.84S765.36,743.1,765.36,714.09Zm62.75,0c0-20.13-9.11-32.31-23.2-32.31S781.7,694,781.7,714.09s9.11,33,23.21,33S828.11,734.22,828.11,714.09Z" transform="translate(-134.15 -584.86)"/><path class="cls-12" d="M856.36,747.79l9.27-10.91c6.41,6.11,15,10.23,23.36,10.23,10.1,0,15.64-4.58,15.64-11.58,0-7.37-5.79-9.73-13.94-13.19L878.43,717c-8.83-3.67-18.12-10.67-18.12-23.78,0-14.29,12.61-25.28,30.11-25.28a39.34,39.34,0,0,1,27.65,11.43l-8.18,10.1c-5.7-4.86-11.79-7.71-19.47-7.71-8.5,0-14,4-14,10.53,0,7.05,6.83,9.65,14.26,12.7l12.09,5.07c10.67,4.45,18.13,11.19,18.13,24.19,0,14.54-12.06,26.66-32.19,26.66A46.17,46.17,0,0,1,856.36,747.79Z" transform="translate(-134.15 -584.86)"/><path class="cls-12" d="M937.23,669.6h15.91v36H989.4v-36h15.91v89.69H989.4V719.52H953.14v39.77H937.23Z" transform="translate(-134.15 -584.86)"/><path class="cls-12" d="M1028.15,669.6h54V683h-38.06v23h32.25v13.38h-32.25V745.9h39.44v13.39h-55.35Z" transform="translate(-134.15 -584.86)"/><path class="cls-12" d="M1095.78,747.79l9.27-10.91c6.42,6.11,15,10.23,23.37,10.23,10.09,0,15.63-4.58,15.63-11.58,0-7.37-5.78-9.73-13.93-13.19L1117.86,717c-8.83-3.67-18.13-10.67-18.13-23.78,0-14.29,12.62-25.28,30.12-25.28a39.32,39.32,0,0,1,27.64,11.43l-8.17,10.1c-5.71-4.86-11.79-7.71-19.47-7.71-8.51,0-14,4-14,10.53,0,7.05,6.83,9.65,14.27,12.7l12.09,5.07c10.67,4.45,18.13,11.19,18.13,24.19,0,14.54-12.07,26.66-32.2,26.66A46.19,46.19,0,0,1,1095.78,747.79Z" transform="translate(-134.15 -584.86)"/><path class="cls-12" d="M612.83,800.44H623c7.13,0,12.42,2.47,12.42,9.9,0,7.16-5.31,10.42-12.22,10.42h-4.62v11.81h-5.7Zm9.84,15.76c4.8,0,7.08-1.91,7.08-5.86s-2.5-5.34-7.27-5.34h-4v11.2Z" transform="translate(-134.15 -584.86)"/><path class="cls-12" d="M651.24,800.44h10.83c6.69,0,11.83,2.35,11.83,9.53,0,6.91-5.14,10-11.83,10h-5.13v12.56h-5.7Zm10.24,15c4.41,0,6.8-1.83,6.8-5.48s-2.39-5-6.8-5h-4.54v10.45Zm-.48,3,4.13-3.4,10,17.48h-6.4Z" transform="translate(-134.15 -584.86)"/><path class="cls-12" d="M688.46,816.37c0-10.39,5.8-16.52,14.17-16.52S716.8,806,716.8,816.37s-5.79,16.79-14.17,16.79S688.46,826.77,688.46,816.37Zm22.49,0c0-7.21-3.27-11.57-8.32-11.57s-8.31,4.36-8.31,11.57,3.26,11.84,8.31,11.84S711,823.59,711,816.37Z" transform="translate(-134.15 -584.86)"/><path class="cls-12" d="M733.09,800.44h19.42v4.79H738.79v9.12h11.67v4.8H738.79v13.42h-5.7Z" transform="translate(-134.15 -584.86)"/><path class="cls-12" d="M768,800.44h19.34v4.79H773.67v8.23h11.56v4.8H773.67v9.51H787.8v4.8H768Z" transform="translate(-134.15 -584.86)"/><path class="cls-12" d="M802,828.45l3.32-3.91a12.62,12.62,0,0,0,8.37,3.67c3.62,0,5.6-1.65,5.6-4.15s-2.07-3.49-5-4.73l-4.39-1.9c-3.17-1.32-6.5-3.83-6.5-8.52,0-5.12,4.52-9.06,10.79-9.06a14.11,14.11,0,0,1,9.91,4.09l-2.93,3.62a10.35,10.35,0,0,0-7-2.76c-3,0-5,1.42-5,3.77,0,2.53,2.45,3.46,5.11,4.55l4.33,1.82c3.83,1.59,6.5,4,6.5,8.67,0,5.2-4.32,9.55-11.54,9.55A16.53,16.53,0,0,1,802,828.45Z" transform="translate(-134.15 -584.86)"/><path class="cls-12" d="M837.84,828.45l3.32-3.91a12.64,12.64,0,0,0,8.38,3.67c3.61,0,5.6-1.65,5.6-4.15s-2.08-3.49-5-4.73l-4.39-1.9c-3.16-1.32-6.49-3.83-6.49-8.52,0-5.12,4.52-9.06,10.79-9.06a14.08,14.08,0,0,1,9.9,4.09L857,807.56a10.32,10.32,0,0,0-7-2.76c-3,0-5,1.42-5,3.77,0,2.53,2.44,3.46,5.1,4.55l4.34,1.82c3.82,1.59,6.49,4,6.49,8.67,0,5.2-4.32,9.55-11.53,9.55A16.55,16.55,0,0,1,837.84,828.45Z" transform="translate(-134.15 -584.86)"/><path class="cls-12" d="M876.64,800.44h5.7v32.13h-5.7Z" transform="translate(-134.15 -584.86)"/><path class="cls-12" d="M898.63,816.37c0-10.39,5.8-16.52,14.17-16.52S927,806,927,816.37s-5.8,16.79-14.17,16.79S898.63,826.77,898.63,816.37Zm22.49,0c0-7.21-3.27-11.57-8.32-11.57s-8.31,4.36-8.31,11.57,3.26,11.84,8.31,11.84S921.12,823.59,921.12,816.37Z" transform="translate(-134.15 -584.86)"/><path class="cls-12" d="M943.26,800.44h5.86l10,18.06,3.32,6.86h.2c-.28-3.33-.73-7.39-.73-11V800.44h5.43v32.13h-5.86l-10-18.09-3.33-6.83H948c.27,3.4.73,7.27.73,10.85v14.07h-5.43Z" transform="translate(-134.15 -584.86)"/><path class="cls-12" d="M991.6,800.44h6.69l10.47,32.13h-6l-4.9-17.1c-1-3.4-2-7.07-2.91-10.59h-.19c-.89,3.55-1.83,7.19-2.85,10.59l-4.94,17.1h-5.81Zm-4.28,18.95h15.13v4.47H987.32Z" transform="translate(-134.15 -584.86)"/><path class="cls-12" d="M1022.26,800.44h5.7v27.33h13.34v4.8h-19Z" transform="translate(-134.15 -584.86)"/><path class="cls-12" d="M1073.19,800.44h5.86l2.79,16.23c.52,3.42,1.07,6.84,1.59,10.26h.2c.67-3.42,1.37-6.87,2.08-10.26l4-16.23h5l4,16.23c.7,3.33,1.41,6.81,2.12,10.26h.19c.53-3.45,1-6.9,1.56-10.26l2.79-16.23h5.46l-6.17,32.13h-7.06l-4-16.92q-.81-3.75-1.42-7.39h-.2q-.66,3.65-1.45,7.39l-3.89,16.92h-6.94Z" transform="translate(-134.15 -584.86)"/><path class="cls-12" d="M1125.52,800.44h19.34v4.79h-13.64v8.23h11.56v4.8h-11.56v9.51h14.13v4.8h-19.83Z" transform="translate(-134.15 -584.86)"/><path class="cls-12" d="M1161.78,800.44h10.28c6.6,0,11.46,2,11.46,7.92a7.21,7.21,0,0,1-4.46,6.95v.2c3.55.81,6.17,3.28,6.17,7.62,0,6.43-5.27,9.44-12.35,9.44h-11.1Zm9.77,13.26c4.48,0,6.39-1.75,6.39-4.54,0-3.1-2.11-4.28-6.27-4.28h-4.19v8.82Zm.74,14.43c4.72,0,7.36-1.69,7.36-5.31,0-3.38-2.56-4.85-7.36-4.85h-4.81v10.16Z" transform="translate(-134.15 -584.86)"/><path class="cls-12" d="M1198,828.45l3.32-3.91a12.62,12.62,0,0,0,8.37,3.67c3.62,0,5.6-1.65,5.6-4.15s-2.07-3.49-5-4.73l-4.39-1.9c-3.17-1.32-6.5-3.83-6.5-8.52,0-5.12,4.52-9.06,10.79-9.06a14.11,14.11,0,0,1,9.91,4.09l-2.93,3.62a10.36,10.36,0,0,0-7-2.76c-3,0-5,1.42-5,3.77,0,2.53,2.45,3.46,5.11,4.55l4.33,1.82c3.83,1.59,6.5,4,6.5,8.67,0,5.2-4.32,9.55-11.54,9.55A16.53,16.53,0,0,1,1198,828.45Z" transform="translate(-134.15 -584.86)"/><path class="cls-12" d="M1236.75,800.44h5.7v32.13h-5.7Z" transform="translate(-134.15 -584.86)"/><path class="cls-12" d="M1266.91,805.23h-9.27v-4.79h24.25v4.79h-9.28v27.34h-5.7Z" transform="translate(-134.15 -584.86)"/><path class="cls-12" d="M1297.08,800.44h19.34v4.79h-13.64v8.23h11.55v4.8h-11.55v9.51h14.13v4.8h-19.83Z" transform="translate(-134.15 -584.86)"/><path class="cls-12" d="M1331.13,828.45l3.32-3.91a12.64,12.64,0,0,0,8.38,3.67c3.61,0,5.6-1.65,5.6-4.15s-2.08-3.49-5-4.73l-4.4-1.9c-3.16-1.32-6.49-3.83-6.49-8.52,0-5.12,4.52-9.06,10.79-9.06a14.08,14.08,0,0,1,9.9,4.09l-2.93,3.62a10.32,10.32,0,0,0-7-2.76c-3,0-5,1.42-5,3.77,0,2.53,2.44,3.46,5.11,4.55l4.33,1.82c3.82,1.59,6.5,4,6.5,8.67,0,5.2-4.33,9.55-11.54,9.55A16.57,16.57,0,0,1,1331.13,828.45Z" transform="translate(-134.15 -584.86)"/></svg>